<svg width="40" height="40" viewBox="0 0 40 40" fill="none" xmlns="http://www.w3.org/2000/svg">
<g id="Group 2.1">
<g id="Group">
<path id="Vector" d="M20.0002 23.5323C21.9813 23.5323 23.5873 21.9301 23.5873 19.9537C23.5873 17.9772 21.9813 16.375 20.0002 16.375C18.0191 16.375 16.4131 17.9772 16.4131 19.9537C16.4131 21.9301 18.0191 23.5323 20.0002 23.5323Z" fill="#C4C4C4"/>
</g>
<g id="Group_2">
<path id="Vector_2" d="M20.8692 19.954H19.1301V39.0402H20.8692V19.954Z" fill="#C4C4C4"/>
</g>
<g id="Group_3">
<path id="Vector_3" d="M23.9375 28.8887L23.2366 27.3003C26.1566 26.0172 28.0438 23.1336 28.0438 19.9536C28.0438 15.5287 24.4353 11.9287 20.0002 11.9287C15.5651 11.9287 11.9566 15.5287 11.9566 19.9536C11.9566 23.1336 13.8438 26.0176 16.7638 27.3003L16.0629 28.8887C12.5122 27.3283 10.2175 23.8216 10.2175 19.9536C10.2175 14.5723 14.606 10.1936 20.0002 10.1936C25.3944 10.1936 29.7829 14.5723 29.7829 19.9536C29.7829 23.8216 27.4882 27.3283 23.9375 28.8887Z" fill="#C4C4C4"/>
</g>
<g id="Group_4">
<path id="Vector_4" d="M23.8071 34.4313L23.3667 32.7527C29.192 31.2318 33.2604 25.9682 33.2604 19.9536C33.2604 12.6585 27.3116 6.7229 19.9996 6.7229C12.6876 6.7229 6.73867 12.658 6.73867 19.9536C6.73867 25.9682 10.8071 31.2318 16.6324 32.7527L16.192 34.4313C9.60267 32.7105 5 26.7567 5 19.9536C5 11.7016 11.7289 4.98779 20 4.98779C28.2711 4.98779 35 11.7011 35 19.9536C35 26.7567 30.3973 32.7105 23.8071 34.4313Z" fill="#C4C4C4"/>
</g>
<g id="Group_5">
<path id="Vector_5" d="M23.7489 39.5556L23.4249 37.8516C32.0213 36.2244 38.2609 28.6969 38.2609 19.9533C38.2609 9.90756 30.0689 1.73467 20 1.73467C9.93111 1.73467 1.73911 9.908 1.73911 19.9538C1.73911 28.6973 7.97867 36.2244 16.5751 37.852L16.2507 39.5556C6.83467 37.7738 0 29.5293 0 19.9538C0 8.95156 8.97244 0 20 0C31.0276 0 40 8.95156 40 19.9538C40 29.5293 33.1653 37.7738 23.7489 39.5556Z" fill="#C4C4C4"/>
</g>
</g>
</svg>
