<svg width="40" height="40" viewBox="0 0 40 40" fill="none" xmlns="http://www.w3.org/2000/svg">
<g id="Group 2.3">
<g id="Group">
<path id="Vector" d="M2.92683 0C1.32224 0 0 1.32224 0 2.92683V28.2927C0 29.8973 1.32224 31.2195 2.92683 31.2195H8.78049V37.0732C8.78049 38.6778 10.1027 40 11.7073 40H37.0732C38.6778 40 40 38.6778 40 37.0732V11.7073C40 10.1027 38.6778 8.78049 37.0732 8.78049H31.2195V2.92683C31.2195 1.32224 29.8973 0 28.2927 0H2.92683ZM2.92683 1.95122H28.2927C28.85 1.95122 29.2683 2.36947 29.2683 2.92683V8.78049H11.7073C10.1027 8.78049 8.78049 10.1027 8.78049 11.7073V29.2683H2.92683C2.36947 29.2683 1.95122 28.85 1.95122 28.2927V2.92683C1.95122 2.36947 2.36947 1.95122 2.92683 1.95122ZM11.7073 10.7317H37.0732C37.6305 10.7317 38.0488 11.15 38.0488 11.7073V37.0732C38.0488 37.6305 37.6305 38.0488 37.0732 38.0488H11.7073C11.15 38.0488 10.7317 37.6305 10.7317 37.0732V11.7073C10.7317 11.15 11.15 10.7317 11.7073 10.7317Z" fill="#C4C4C4"/>
</g>
<g id="Group_2">
<path id="Vector_2" d="M28 23H25V20C25 19.4 24.6 19 24 19C23.4 19 23 19.4 23 20V23H20C19.4 23 19 23.4 19 24C19 24.6 19.4 25 20 25H23V28C23 28.6 23.4 29 24 29C24.6 29 25 28.6 25 28V25H28C28.6 25 29 24.6 29 24C29 23.4 28.6 23 28 23Z" fill="#C4C4C4"/>
</g>
</g>
</svg>
