<svg width="39" height="40" viewBox="0 0 39 40" fill="none" xmlns="http://www.w3.org/2000/svg">
<g id="Group">
<path id="Vector" d="M8.28707 11.9518C8.60579 11.9518 8.81828 11.7393 8.81828 11.4206C8.81828 9.82694 10.0932 8.55204 11.6868 8.55204C12.0055 8.55204 12.218 8.33956 12.218 8.02083C12.218 7.70211 12.0055 7.48962 11.6868 7.48962C9.50885 7.48962 7.75586 9.24261 7.75586 11.4206C7.75586 11.6862 8.02146 11.9518 8.28707 11.9518Z" fill="#C4C4C4"/>
<path id="Vector_2" d="M14.3957 15.0337C14.7144 15.0337 14.9269 14.8212 14.9269 14.5025C14.9269 12.1652 16.7861 10.3059 19.1235 10.3059C19.4422 10.3059 19.6547 10.0935 19.6547 9.77474C19.6547 9.45601 19.4422 9.24353 19.1235 9.24353C16.2018 9.24353 13.8645 11.5808 13.8645 14.5025C13.8645 14.8212 14.077 15.0337 14.3957 15.0337Z" fill="#C4C4C4"/>
<path id="Vector_3" d="M37.7689 13.2802C37.7158 13.0677 37.5033 12.9084 37.2377 12.9084H33.413L35.6972 5.73705C35.8035 5.47145 35.6441 5.15272 35.3254 5.04648C35.0598 4.94024 34.741 5.0996 34.6348 5.41833L32.2975 12.9084H31.2882C30.757 11.8991 29.907 11.1023 28.7915 10.6773C28.4728 8.23373 26.3479 6.3745 23.8513 6.3745C22.8951 4.03718 20.6109 2.5498 18.0611 2.5498C17.9548 2.5498 17.9017 2.5498 17.7955 2.5498C17.1049 1.0093 15.5644 0 13.8645 0C12.0584 0 10.4648 1.11554 9.82736 2.76228C9.34927 2.65604 8.87118 2.60292 8.39309 2.60292C4.72776 2.60292 1.75299 5.57769 1.75299 9.24303C1.75299 10.1461 1.96547 11.0491 2.2842 11.8991C0.849933 12.6959 0 14.1833 0 15.83C0 17.8486 1.32802 19.5485 3.13413 20.1328L7.6494 39.5219C7.70252 39.7875 7.91501 39.9469 8.18061 39.9469H12.0053H15.9363H19.8672H23.6919H23.745C23.7981 39.9469 23.8513 40 23.9044 40H35.9628C36.2284 40 36.494 39.7875 36.494 39.5219L37.822 16.9987H38.1939C38.3533 16.9987 38.5126 16.9456 38.6189 16.7862C38.7251 16.6799 38.7782 16.4675 38.7251 16.3081L37.7689 13.2802ZM4.30279 20.1328H9.40239L11.3679 38.8845H8.60558L4.30279 20.1328ZM3.24037 12.6428C3.39973 12.5896 3.50598 12.4834 3.5591 12.324C3.61222 12.1647 3.61222 12.0053 3.50598 11.8991C3.08101 11.1023 2.86853 10.1992 2.86853 9.24303C2.86853 6.16202 5.36521 3.66534 8.44622 3.66534C8.97742 3.66534 9.56175 3.77158 10.093 3.93094C10.2523 3.98406 10.4117 3.93094 10.5179 3.87782C10.6242 3.8247 10.7304 3.66534 10.7835 3.5591C11.1023 2.07171 12.4303 1.06242 13.9177 1.06242C15.2988 1.06242 16.5206 1.96547 16.9456 3.24037C16.9987 3.45286 17.2643 3.61222 17.5299 3.61222C17.7424 3.61222 17.9017 3.5591 18.1142 3.5591C20.3453 3.5591 22.3108 4.94024 23.0545 7.06507C23.1076 7.27756 23.3732 7.43692 23.6388 7.43692C23.745 7.43692 23.7981 7.43692 23.9044 7.43692C25.9761 7.43692 27.676 9.03054 27.8353 11.1023C27.8353 11.3147 27.9947 11.5272 28.2072 11.5803C29.004 11.846 29.6414 12.324 30.1195 12.9084H22.4701C22.2576 12.9084 22.0452 13.0677 21.9389 13.2802L21.089 16.3081C21.0359 16.4675 21.089 16.6268 21.1952 16.7862C21.3015 16.8924 21.4608 16.9987 21.6202 16.9987H21.992L22.0983 19.1235H21.992H15.8831H9.82736H3.61222C3.5591 19.1235 3.50598 19.1235 3.50598 19.1766C2.12483 18.7517 1.11554 17.4236 1.11554 15.8831C1.11554 14.4489 1.91235 13.174 3.24037 12.6428ZM36.8659 13.9177L37.3971 15.8831H37.2377H22.4701H22.3108L22.842 13.9177H36.8659ZM19.336 38.8845H16.4143V20.1328H21.3546L20.0266 32.4037L19.336 38.8845ZM12.4303 38.8845L10.4117 20.1328H15.3519V38.8845H12.4303ZM22.2576 21.7264L23.2669 38.6189L23.2138 38.8845H20.3984L22.2576 21.7264ZM24.3294 38.9376L23.0545 16.9456H36.7065L35.4316 38.8845H24.3294V38.9376Z" fill="#C4C4C4"/>
</g>
</svg>
