<svg width="40" height="33" viewBox="0 0 40 33" fill="none" xmlns="http://www.w3.org/2000/svg">
<g id="Group 3.1">
<g id="Group">
<path id="Vector" d="M40 27.9487V0H0V27.9487H16.5569V30.8854H10.0254V32.7082H29.9747V30.8854H23.4431V27.9487H40ZM1.21519 1.21519H38.7848V26.7335H1.21519V1.21519Z" fill="white"/>
</g>
<g id="Group_2">
<path id="Vector_2" d="M17.2174 8.95652C16.8572 8.95652 16.5652 8.66453 16.5652 8.30435C16.5652 7.94416 16.8572 7.65217 17.2174 7.65217H26.3478C26.708 7.65217 27 7.94416 27 8.30435C27 8.66453 26.708 8.95652 26.3478 8.95652H17.2174ZM12 8.30435C12 7.58404 12.5836 7 13.3043 7C14.0251 7 14.6087 7.58404 14.6087 8.30435C14.6087 9.02466 14.0251 9.6087 13.3043 9.6087C12.5836 9.6087 12 9.02466 12 8.30435ZM17.2174 14.1739C16.8572 14.1739 16.5652 13.8819 16.5652 13.5217C16.5652 13.1616 16.8572 12.8696 17.2174 12.8696H26.3478C26.708 12.8696 27 13.1616 27 13.5217C27 13.8819 26.708 14.1739 26.3478 14.1739H17.2174ZM12 13.5217C12 12.8014 12.5836 12.2174 13.3043 12.2174C14.0251 12.2174 14.6087 12.8014 14.6087 13.5217C14.6087 14.242 14.0251 14.8261 13.3043 14.8261C12.5836 14.8261 12 14.242 12 13.5217ZM17.2174 19.3913C16.8572 19.3913 16.5652 19.0993 16.5652 18.7391C16.5652 18.3789 16.8572 18.087 17.2174 18.087H26.3478C26.708 18.087 27 18.3789 27 18.7391C27 19.0993 26.708 19.3913 26.3478 19.3913H17.2174ZM12 18.7391C12 18.0188 12.5836 17.4348 13.3043 17.4348C14.0251 17.4348 14.6087 18.0188 14.6087 18.7391C14.6087 19.4594 14.0251 20.0435 13.3043 20.0435C12.5836 20.0435 12 19.4594 12 18.7391Z" fill="white"/>
</g>
</g>
</svg>
