<svg width="50" height="50" viewBox="0 0 50 50" fill="none" xmlns="http://www.w3.org/2000/svg">
<g id="noun_Arrow_1569918_000000" opacity="0.6">
<g id="Group">
<path id="Vector" d="M39.9999 25C39.9999 24.7686 39.86 24.4614 39.718 24.3123L31.7181 15.8121C31.3446 15.426 30.7395 15.3812 30.3041 15.7731C29.9148 16.1235 29.9051 16.8068 30.2651 17.1872L36.6868 23.9998H14C13.4477 23.9998 13 24.4475 13 24.9998C13 25.5521 13.4477 25.9999 14 25.9999H36.6868L30.2651 32.8125C29.9051 33.1929 29.9307 33.8594 30.3041 34.2265C30.6983 34.6141 31.3503 34.5796 31.7181 34.1875L39.718 25.6874C39.953 25.4569 39.996 25.2348 39.9999 25Z" fill="white"/>
</g>
</g>
</svg>
