<svg width="24" height="24" viewBox="0 0 24 24" fill="none" xmlns="http://www.w3.org/2000/svg">
<g id="noun_Download file_878700_000000" clip-path="url(#clip0_1010_1092)">
<g id="Group">
<path id="Vector" d="M12 17C11.744 17 11.488 16.902 11.293 16.707L8.293 13.707C7.902 13.316 7.902 12.684 8.293 12.293C8.684 11.902 9.316 11.902 9.707 12.293L12 14.586L14.293 12.293C14.684 11.902 15.316 11.902 15.707 12.293C16.098 12.684 16.098 13.316 15.707 13.707L12.707 16.707C12.512 16.902 12.256 17 12 17ZM12 17C11.448 17 11 16.553 11 16V10C11 9.448 11.448 9 12 9C12.552 9 13 9.448 13 10V16C13 16.553 12.552 17 12 17ZM16 20H8C7.448 20 7 19.553 7 19C7 18.447 7.448 18 8 18H16C16.553 18 17 18.447 17 19C17 19.553 16.553 20 16 20ZM19.825 24H4.176C2.976 24 2 23.057 2 21.897V6.133C2 5.864 2.108 5.606 2.301 5.418L7.551 0.285C7.738 0.103 7.989 0 8.25 0H19.825C21.024 0 22 0.942 22 2.101V21.9C22 23.058 21.024 24 19.825 24ZM4 6.554V21.897C4 21.934 4.067 22 4.176 22H19.825C19.934 22 20 21.935 20 21.899V2.101C20 2.065 19.934 2 19.825 2H8.658L4 6.554ZM9 8H5.333C4.781 8 4.333 7.552 4.333 7C4.333 6.448 4.781 6 5.333 6H8V3.333C8 2.781 8.448 2.333 9 2.333C9.552 2.333 10 2.781 10 3.333V7C10 7.552 9.552 8 9 8Z" fill="white"/>
</g>
</g>
<defs>
<clipPath id="clip0_1010_1092">
<rect width="24" height="24" fill="white"/>
</clipPath>
</defs>
</svg>
